<svg xmlns="http://www.w3.org/2000/svg" version="1.1" xmlns:xlink="http://www.w3.org/1999/xlink" width="512" height="512" x="0" y="0" viewBox="0 0 20 20" style="enable-background:new 0 0 512 512" xml:space="preserve" class=""><g><path d="m12.817 16.157 1.414-1.414a6.007 6.007 0 0 0-8.485 0l1.414 1.414a4.004 4.004 0 0 1 5.657 0zM9.988 18.986l1.697-1.697a2.4 2.4 0 0 0-3.394 0zM5.058 10.334a9.991 9.991 0 0 0-2.097 1.596l1.414 1.414a7.948 7.948 0 0 1 2.467-1.675 6.855 6.855 0 0 1-1.784-1.335zM14.927 10.325a6.856 6.856 0 0 1-1.78 1.338 7.945 7.945 0 0 1 2.477 1.68l1.414-1.413a9.99 9.99 0 0 0-2.111-1.605zM9.71 5.896h.56v1.162h-.56z" fill="#46d41f" opacity="1" data-original="#000000"></path><path d="M9.988.997a4.6 4.6 0 1 0 0 9.201 4.6 4.6 0 0 0 0-9.201zm1.479 6.064c0 .66-.536 1.195-1.195 1.195h-.567c-.659 0-1.196-.536-1.196-1.195V3.93c0-.547.445-.992.992-.992h1.672v1.2H9.71V4.7h.562c.659 0 1.195.536 1.195 1.195v1.166zM3.264 6.759A13.89 13.89 0 0 0 .133 9.1l1.414 1.414A11.896 11.896 0 0 1 3.907 8.7a6.786 6.786 0 0 1-.643-1.94zM16.736 6.759a6.784 6.784 0 0 1-.643 1.94c.84.498 1.638 1.095 2.36 1.816l1.414-1.414a13.895 13.895 0 0 0-3.13-2.342z" fill="#46d41f" opacity="1" data-original="#000000"></path></g></svg>