<svg width="58" height="60" viewBox="0 0 58 60" fill="none" xmlns="http://www.w3.org/2000/svg">
<g clip-path="url(#clip0_250_9)">
<mask id="mask0_250_9" style="mask-type:luminance" maskUnits="userSpaceOnUse" x="0" y="0" width="58" height="60">
<path d="M58 0H0V60H58V0Z" fill="white"/>
</mask>
<g mask="url(#mask0_250_9)">
<path d="M55.6668 55.3126H21.1442C18.5684 55.3126 16.2003 54.0129 14.8097 51.8356C14.8004 51.8204 14.7911 51.8063 14.7806 51.7911L5.54941 38.0379C4.70831 36.7629 4.04452 34.4626 5.6509 33.3282C6.69966 32.5876 8.10189 32.6813 9.04682 33.5356L17.2467 45.2333C18.7329 47.4399 21.1956 48.7594 23.8472 48.7688C23.8577 48.7688 23.8682 48.7688 23.8799 48.7688H37.481C38.7701 48.7688 39.8142 47.72 39.8142 46.4251C39.8142 45.1301 38.7701 44.0813 37.481 44.0813H23.8974C23.8915 44.0813 23.8857 44.0813 23.8799 44.0813C22.3388 44.0813 21.0859 42.7946 21.0859 41.2114C21.0859 39.6282 22.3388 38.3415 23.881 38.3415L45.8046 38.3321H45.8081C47.8181 38.3321 49.7079 39.1184 51.1288 40.5458C52.5509 41.9743 53.3348 43.8727 53.3348 45.893C53.3348 47.1879 54.3789 48.2368 55.668 48.2368C56.9571 48.2368 58.0012 47.1879 58.0012 45.893C58.0012 42.62 56.7319 39.5438 54.4279 37.2305C52.1251 34.9184 49.064 33.6446 45.8081 33.6446H45.8034L23.881 33.654C21.1466 33.654 18.7504 35.1516 17.452 37.3805L12.7367 30.6528C12.662 30.5473 12.5792 30.4477 12.4894 30.3551C9.93925 27.7606 5.93555 27.3973 2.9701 29.4915C1.15607 30.7712 0.104985 32.7258 0.00699207 34.9981C-0.0746685 36.8954 0.514454 38.8993 1.66703 40.6395C1.66937 40.6442 1.67287 40.6477 1.6752 40.6524L10.897 54.3915C13.152 57.9047 16.9807 60.0012 21.1442 60.0012H55.6668C56.9559 60.0012 58 58.9524 58 57.6575C58 56.3626 56.9559 55.3137 55.6668 55.3137V55.3126Z" fill="#46D41F"/>
<path d="M26.3168 29.2688C28.8728 26.7012 32.2722 25.2868 35.8874 25.2868C39.5026 25.2868 42.9009 26.7012 45.458 29.2688C45.9141 29.727 46.5103 29.9555 47.1076 29.9555C47.7048 29.9555 48.3021 29.727 48.7571 29.2688C49.6682 28.3536 49.6682 26.87 48.7571 25.9547C47.3024 24.4934 45.6447 23.3098 43.847 22.4309C46.6689 20.1106 48.4725 16.5856 48.4725 12.6446C48.4725 5.6731 42.8262 0.0012207 35.8862 0.0012207C28.9462 0.0012207 23.3 5.6731 23.3 12.6446C23.3 16.5856 25.1035 20.1106 27.9255 22.4309C26.129 23.3098 24.4712 24.4934 23.0154 25.9547C22.1043 26.87 22.1043 28.3536 23.0154 29.2688C23.9265 30.184 25.4045 30.184 26.3156 29.2688H26.3168ZM27.9675 12.6434C27.9675 8.25708 31.5209 4.68755 35.8874 4.68755C40.2539 4.68755 43.8073 8.25708 43.8073 12.6434C43.8073 17.0297 40.2551 20.5993 35.8874 20.5993C31.5197 20.5993 27.9675 17.0297 27.9675 12.6434Z" fill="#46D41F"/>
</g>
</g>
<defs>
<clipPath id="clip0_250_9">
<rect width="58" height="60" fill="white"/>
</clipPath>
</defs>
</svg>
