<svg width="56" height="56" viewBox="0 0 56 56" fill="none" xmlns="http://www.w3.org/2000/svg">
<g clip-path="url(#clip0_250_2)">
<mask id="mask0_250_2" style="mask-type:luminance" maskUnits="userSpaceOnUse" x="0" y="0" width="56" height="56">
<path d="M56 0H0V56H56V0Z" fill="white"/>
</mask>
<g mask="url(#mask0_250_2)">
<path d="M36.8911 6.74542C28.8386 -1.84968 15.3424 -2.28962 6.74735 5.7618C-0.495141 12.5446 -2.1014 23.4257 2.87235 32.012C3.05485 32.3082 3.1211 32.6619 3.05735 33.0044L1.81236 38.9174C1.50986 40.3584 2.43235 41.772 3.87361 42.0744C4.2911 42.1619 4.72485 42.1482 5.13611 42.0344L11.0111 40.4034C11.3436 40.3222 11.6949 40.3622 11.9986 40.5196C14.9049 41.9382 18.0974 42.6731 21.3324 42.6706C22.4136 42.6706 23.4924 42.5894 24.5611 42.4306C36.2074 40.6496 44.2049 29.7648 42.4236 18.1201C41.7711 13.857 39.8424 9.89125 36.8899 6.74667L36.8911 6.74542ZM19.9999 32.6707C18.8949 32.6707 17.9999 31.7758 17.9999 30.671C17.9999 29.5661 18.8949 28.6712 19.9999 28.6712C21.1049 28.6712 21.9999 29.5661 21.9999 30.671C21.9999 31.7758 21.1049 32.6707 19.9999 32.6707ZM22.2361 22.2871C21.7236 22.4346 21.3611 22.8895 21.3324 23.4219V25.3379C21.3324 26.0741 20.7349 26.6715 19.9986 26.6715C19.2624 26.6715 18.6649 26.0741 18.6649 25.3379V23.4219C18.6836 21.7597 19.7599 20.2924 21.3399 19.7749C23.4211 19.0338 24.5074 16.7466 23.7674 14.6656C23.0261 12.5846 20.7386 11.4985 18.6574 12.2384C17.0636 12.8059 15.9986 14.3144 15.9986 16.0054C15.9986 16.7416 15.4011 17.339 14.6649 17.339C13.9286 17.339 13.3311 16.7416 13.3311 16.0054C13.3161 12.3247 16.2899 9.32757 19.9711 9.31383C23.0749 9.30133 25.7761 11.4323 26.4861 14.4531C27.2574 17.7639 25.4311 21.1297 22.2336 22.2883L22.2361 22.2871Z" fill="#46D41F"/>
<path d="M53.4924 48.3611C53.4174 48.0074 53.4849 47.6387 53.6787 47.335C55.2024 44.7016 56.0024 41.712 55.9987 38.6699C55.9962 38.0237 55.9612 37.3788 55.8924 36.7364C55.2662 30.8834 50.7724 25.2579 45.2787 22.7383C45.2524 23.312 45.1987 23.8719 45.1324 24.4318C43.7749 35.0454 35.5399 43.4705 24.9587 45.069C24.1849 45.1753 23.4124 45.2553 22.6387 45.2953C25.3124 51.7794 31.6374 56.0088 38.6524 56.0001C41.0249 55.9976 43.3712 55.5076 45.5462 54.5603C45.8199 54.4315 46.1287 54.394 46.4262 54.454L51.1862 55.5201C52.0774 55.7151 53.0062 55.4439 53.6524 54.8002C54.3012 54.1578 54.5737 53.2255 54.3724 52.3343L53.4924 48.3611Z" fill="#46D41F"/>
</g>
</g>
<defs>
<clipPath id="clip0_250_2">
<rect width="56" height="56" fill="white"/>
</clipPath>
</defs>
</svg>
