<svg xmlns="http://www.w3.org/2000/svg" version="1.1" xmlns:xlink="http://www.w3.org/1999/xlink" width="512" height="512" x="0" y="0" viewBox="0 0 512 512" style="enable-background:new 0 0 512 512" xml:space="preserve" class=""><g><path d="M256 512c-72.246 0-150-18.779-150-60 0-23.511 25.957-42.114 73.081-52.368l6.387 29.326C145.126 437.732 136 450.096 136 452c0 7.705 41.265 30 120 30s120-22.295 120-30c0-1.904-9.126-14.268-49.468-23.042l6.387-29.326C380.043 409.886 406 428.489 406 452c0 41.221-77.754 60-150 60zM308.5 150H286v15h22.5c4.131 0 7.5-3.369 7.5-7.5s-3.369-7.5-7.5-7.5z" fill="#46d41f" opacity="1" data-original="#000000" class=""></path><path d="M256 0C165.019 0 91 74.019 91 165c0 37.354 12.832 73.96 36.138 103.052L256 430.994l128.862-162.942C408.168 238.96 421 202.354 421 165 421 74.019 346.981 0 256 0zm-30 240h-30V120h30zm82.5-45H286v45h-30V120h52.5c20.684 0 37.5 16.816 37.5 37.5S329.184 195 308.5 195z" fill="#46d41f" opacity="1" data-original="#000000" class=""></path></g></svg>