<svg width="96" height="96" viewBox="0 0 96 96" fill="none" xmlns="http://www.w3.org/2000/svg">
<path d="M57.9419 37.6007C82.6683 37.6007 80.8416 37.5955 81.2224 37.6102C80.9987 36.7562 80.5542 35.9483 79.886 35.2801L73.1068 28.501C71.6419 27.036 69.3929 26.6101 67.5099 27.4417C66.4988 27.8885 65.2939 27.663 64.5119 26.881C63.7298 26.0991 63.5045 24.8942 63.9509 23.8831C64.7826 22.0005 64.357 19.7512 62.8917 18.286L56.1127 11.5069C54.1033 9.49778 50.8341 9.49763 48.8247 11.5069L40.3433 19.9883C42.7334 22.3804 55.5581 35.2149 57.9419 37.6007Z" fill="#46D41F"/>
<path d="M37.1821 23.1497L22.7311 37.6007H51.6195C51.5672 37.5483 50.4616 36.4415 37.1821 23.1497Z" fill="#46D41F"/>
<path d="M82.7922 61.5184C84.7114 60.7754 86.0009 58.8837 86.0009 56.8117V47.2247C86.0009 44.3832 83.689 42.0713 80.8474 42.0713H70.3536V85.9985H80.8474C83.689 85.9985 86.0009 83.6866 86.0009 80.845V71.258C86.0009 69.1862 84.7116 67.2945 82.7923 66.5513C81.7614 66.152 81.0687 65.1407 81.0687 64.0348C81.0687 62.9289 81.7614 61.9177 82.7922 61.5184Z" fill="#46D41F"/>
<path d="M10 47.2247V56.8117C10 58.8837 11.2895 60.7754 13.2086 61.5183C14.2395 61.9177 14.932 62.9289 14.932 64.0348C14.932 65.1407 14.2394 66.152 13.2084 66.5513C11.2893 67.2945 10 69.186 10 71.258V80.845C10 83.6866 12.3119 85.9985 15.1535 85.9985H65.883V42.0713H15.1535C12.3119 42.0713 10 44.3831 10 47.2247ZM25.6473 52.4687H59.1771V56.9393H25.6473V52.4687ZM25.6473 61.41H59.1771V65.8806H25.6473V61.41ZM25.6473 70.3512H59.1771V74.8219H25.6473V70.3512Z" fill="#46D41F"/>
</svg>
