<svg width="80" height="80" viewBox="0 0 80 80" fill="none" xmlns="http://www.w3.org/2000/svg">
<g filter="url(#filter0_d_111_690)">
<circle cx="40" cy="38" r="20" fill="#00C2FF"/>
</g>
<g clip-path="url(#clip0_111_690)">
<path d="M40.052 46.2783C41.4714 46.2783 42.6221 45.1276 42.6221 43.7082C42.6221 42.2887 41.4714 41.138 40.052 41.138C38.6325 41.138 37.4818 42.2887 37.4818 43.7082C37.4818 45.1276 38.6325 46.2783 40.052 46.2783Z" fill="#020F56"/>
<path d="M46.1944 37.5158C46.1563 37.4766 46.116 37.4417 46.0768 37.4057L45.9614 37.2965C45.9423 37.2764 45.9211 37.2616 45.8967 37.2425C42.5733 34.2232 37.487 34.3429 34.3151 37.5148L33.9433 37.8877L33.4284 38.4026C32.8012 39.0298 32.8044 40.0521 33.4326 40.6803C34.0619 41.3107 35.0843 41.3118 35.7104 40.6846L36.5982 39.7968C38.6153 37.7807 41.8964 37.7807 43.9124 39.7957L44.5534 40.4165C45.1742 41.0374 46.187 41.0363 46.811 40.4113C47.113 40.1104 47.2793 39.7089 47.2804 39.2819C47.2814 38.8571 47.1172 38.4556 46.8153 38.1557L46.1944 37.5158Z" fill="#020F56"/>
<path d="M50.5731 34.3386L50.0391 33.8047C50.037 33.8026 50.0359 33.7994 50.0317 33.7983L49.6101 33.3746C49.5359 33.3015 49.4554 33.2379 49.3706 33.1828C43.9538 28.427 35.7146 28.5732 30.4705 33.6182C30.4451 33.6415 30.4165 33.6574 30.391 33.6828L29.427 34.648C28.8549 35.219 28.8581 36.1481 29.4333 36.7234C30.0075 37.2976 30.9366 37.3018 31.5087 36.7287L32.4728 35.7657C32.4792 35.7572 32.4845 35.7498 32.4908 35.7445C36.7317 31.6477 43.459 31.6223 47.7338 35.6608L48.4924 36.4204C49.0634 36.9914 49.9946 36.9893 50.5688 36.4151C51.142 35.8398 51.1441 34.9097 50.5731 34.3386Z" fill="#020F56"/>
</g>
<defs>
<filter id="filter0_d_111_690" x="0" y="0" width="80" height="80" filterUnits="userSpaceOnUse" color-interpolation-filters="sRGB">
<feFlood flood-opacity="0" result="BackgroundImageFix"/>
<feColorMatrix in="SourceAlpha" type="matrix" values="0 0 0 0 0 0 0 0 0 0 0 0 0 0 0 0 0 0 127 0" result="hardAlpha"/>
<feOffset dy="2"/>
<feGaussianBlur stdDeviation="10"/>
<feComposite in2="hardAlpha" operator="out"/>
<feColorMatrix type="matrix" values="0 0 0 0 0 0 0 0 0 0.76 0 0 0 0 1 0 0 0 0.8 0"/>
<feBlend mode="normal" in2="BackgroundImageFix" result="effect1_dropShadow_111_690"/>
<feBlend mode="normal" in="SourceGraphic" in2="effect1_dropShadow_111_690" result="shape"/>
</filter>
<clipPath id="clip0_111_690">
<rect width="22" height="22" fill="white" transform="translate(29 27)"/>
</clipPath>
</defs>
</svg>
