<svg xmlns="http://www.w3.org/2000/svg" version="1.1" xmlns:xlink="http://www.w3.org/1999/xlink" width="512" height="512" x="0" y="0" viewBox="0 0 60 60" style="enable-background:new 0 0 512 512" xml:space="preserve" class=""><g><path d="M11.009 34h16.219a1 1 0 0 1 .961 1.275l-6.405 22.377a.241.241 0 0 0 .132.308.246.246 0 0 0 .338-.063l27.5-32.247a.979.979 0 0 0 .146-1.063.991.991 0 0 0-.911-.587H32.254a1 1 0 0 1-.86-1.51L42.651 3.508a.975.975 0 0 0 .009-1A.989.989 0 0 0 41.783 2H21.631a1.008 1.008 0 0 0-.949.668l-10.623 30a.983.983 0 0 0 .126.906.994.994 0 0 0 .824.426z" fill="#46d41f" opacity="1" data-original="#000000" class=""></path></g></svg>