<svg xmlns="http://www.w3.org/2000/svg" version="1.1" xmlns:xlink="http://www.w3.org/1999/xlink" width="512" height="512" x="0" y="0" viewBox="0 0 66 66" style="enable-background:new 0 0 512 512" xml:space="preserve" class=""><g><path d="M9.84 53.9h6.14v2.39H9.84zM38.89 44.08l-2.05-2.9 3.13-3.13H5.5a2.46 2.46 0 0 0-2.46 2.47v8.91c0 1.37 1.1 2.47 2.46 2.47h29.62v-6.57l3.51-.6c.08-.22.17-.43.26-.65zm-14.23 2.75H7.3v-3.7h17.36zm6.9 0c-1.02 0-1.85-.83-1.85-1.85s.83-1.85 1.85-1.85 1.85.83 1.85 1.85-.83 1.85-1.85 1.85z" fill="#46d41f" opacity="1" data-original="#000000" class=""></path><path d="M62.96 51.14v-4.12l-3.04-.52c-.23-.91-.6-1.79-1.07-2.58l1.78-2.52-2.92-2.92-2.52 1.78c-.79-.47-1.67-.83-2.58-1.07l-.52-3.04h-4.12l-.52 3.04c-.92.23-1.79.6-2.58 1.07l-2.52-1.78-2.92 2.92 1.78 2.52c-.47.79-.83 1.67-1.07 2.58l-3.04.52v4.12l3.04.52c.23.92.6 1.79 1.07 2.58l-1.78 2.52 2.92 2.92 2.52-1.78c.79.47 1.66.83 2.58 1.07l.53 3.03h4.12l.52-3.04c.91-.23 1.79-.6 2.58-1.07l2.52 1.78 2.92-2.92-1.78-2.52c.47-.79.83-1.66 1.07-2.58zm-12.92 2.18c-2.34 0-4.24-1.9-4.24-4.24s1.9-4.24 4.24-4.24 4.24 1.9 4.24 4.24-1.89 4.24-4.24 4.24zM5.5 17.85h5.59v1.18h3.64v-1.18h30.2v1.18h3.64v-1.18h1.83c1.36 0 2.47-1.11 2.47-2.47V6.46C52.87 5.1 51.76 4 50.4 4H5.5C4.14 4 3.04 5.1 3.04 6.46v8.92c0 1.36 1.1 2.47 2.46 2.47zm41.25-8.78c1.02 0 1.85.83 1.85 1.85s-.83 1.85-1.85 1.85-1.85-.83-1.85-1.85.83-1.85 1.85-1.85zm-7.6 0c1.03 0 1.85.83 1.85 1.85s-.82 1.85-1.85 1.85c-1.02 0-1.85-.83-1.85-1.85s.83-1.85 1.85-1.85zm-7.59 0c1.02 0 1.85.83 1.85 1.85s-.83 1.85-1.85 1.85-1.85-.83-1.85-1.85.83-1.85 1.85-1.85zm-24.26 0h17.36v3.7H7.3zM5.5 34.88h5.59v1.17h3.64v-1.17h30.2v1.17h1.04l.32-1.89h5.85c.45-.44.73-1.07.73-1.75V23.5c0-1.37-1.11-2.47-2.47-2.47H5.5a2.46 2.46 0 0 0-2.46 2.47v8.91c0 1.36 1.1 2.47 2.46 2.47zm41.25-8.77c1.02 0 1.85.83 1.85 1.85s-.83 1.85-1.85 1.85-1.85-.83-1.85-1.85.83-1.85 1.85-1.85zm-7.6 0c1.03 0 1.85.83 1.85 1.85s-.82 1.85-1.85 1.85c-1.02 0-1.85-.83-1.85-1.85s.83-1.85 1.85-1.85zm-7.59 0c1.02 0 1.85.83 1.85 1.85s-.83 1.85-1.85 1.85-1.85-.83-1.85-1.85.83-1.85 1.85-1.85zm-24.26 0h17.36v3.7H7.3z" fill="#46d41f" opacity="1" data-original="#000000" class=""></path></g></svg>