<svg width="73" height="44" viewBox="0 0 73 44" fill="none" xmlns="http://www.w3.org/2000/svg">
<g clip-path="url(#clip0_250_16)">
<mask id="mask0_250_16" style="mask-type:luminance" maskUnits="userSpaceOnUse" x="0" y="0" width="73" height="44">
<path d="M73 0H0V44H73V0Z" fill="white"/>
</mask>
<g mask="url(#mask0_250_16)">
<path d="M1.32146 34.9418H1.35208C2.0288 34.9327 2.58763 34.4122 2.63815 33.743C3.31946 26.2796 7.08582 19.4279 13.0431 14.813L9.68094 11.4819C3.99925 17.5294 0.581963 25.3281 0.00169872 33.573C-0.0396394 34.2862 0.510004 34.8993 1.22959 34.9403C1.26021 34.9418 1.29083 34.9433 1.32146 34.9418Z" fill="#46D41F"/>
<path d="M29.324 38.819C30.4063 38.819 31.2837 37.9494 31.2837 36.8766C31.2837 35.8038 30.4063 34.9341 29.324 34.9341C28.2417 34.9341 27.3643 35.8038 27.3643 36.8766C27.3643 37.9494 28.2417 38.819 29.324 38.819Z" fill="#46D41F"/>
<path d="M35.2036 9.52873V0C26.3955 0.27923 17.9886 3.7089 11.5337 9.65469L15.2143 13.2968C19.6237 10.506 24.7466 9.02642 29.9781 9.03249C31.7327 9.03249 33.4812 9.19942 35.2036 9.52721V9.52873Z" fill="#46D41F"/>
<path d="M37.8154 0V10.1585C38.78 10.4438 39.7292 10.7822 40.6555 11.1722C41.3981 10.4499 42.133 9.73663 42.8495 9.04463C43.9503 7.96716 45.6574 7.78658 46.9603 8.61213C48.2648 9.38304 48.8588 10.9476 48.3888 12.3787C48.1055 13.268 47.7917 14.2392 47.4671 15.2438C48.9951 16.4928 50.3822 17.9026 51.604 19.4475L61.4914 9.65317C55.035 3.70739 46.625 0.277713 37.8154 0Z" fill="#46D41F"/>
<path d="M63.3378 11.4834L53.1304 21.5964C55.479 25.2476 56.912 29.4027 57.3116 33.7141C57.3622 34.3879 57.9256 34.9114 58.6084 34.9145L71.6942 34.9342C72.4154 34.9342 73.0017 34.356 73.0033 33.6412C73.0033 33.6154 73.0033 33.5896 73.0017 33.5638C72.4307 25.3235 69.0195 17.5278 63.3409 11.4834H63.3378Z" fill="#46D41F"/>
<path d="M45.5837 10.8155C45.4566 10.7351 45.3112 10.6911 45.1611 10.6865C44.9774 10.6865 44.8029 10.7624 44.6758 10.8944C32.8699 22.2898 25.2178 30.4208 23.1264 33.7989C22.1955 35.277 21.9062 37.0647 22.3257 38.7567C22.7605 40.5308 23.9011 42.0544 25.4873 42.9831C28.7116 44.9453 32.9281 43.9832 34.9613 40.8206C37.8167 36.2619 43.033 20.5597 45.8945 11.5971C45.9986 11.2966 45.8669 10.9658 45.5837 10.8155ZM29.3241 41.4079C26.7994 41.4079 24.7508 39.3789 24.7508 36.875C24.7508 34.371 26.7978 32.342 29.3241 32.342C31.8503 32.342 33.8973 34.371 33.8973 36.875C33.8973 39.3789 31.8503 41.4079 29.3241 41.4079Z" fill="#46D41F"/>
</g>
</g>
<defs>
<clipPath id="clip0_250_16">
<rect width="73" height="44" fill="white"/>
</clipPath>
</defs>
</svg>
