<svg xmlns="http://www.w3.org/2000/svg" version="1.1" xmlns:xlink="http://www.w3.org/1999/xlink" width="512" height="512" x="0" y="0" viewBox="0 0 512 512" style="enable-background:new 0 0 512 512" xml:space="preserve"><g><path d="M473.883 453.655C460.055 412.815 442.843 361 376.002 361h-36.194c10.807-8.646 20.612-18.481 28.341-30h7.853c41.353 0 75-33.647 75-75v-60c0-107.52-87.48-196-195-196C146.032 0 59.517 91.414 61.017 198.534c-.018 33.032-.015 21.022-.015 57.466 0 41.353 33.647 75 75 75h7.853c7.729 11.519 17.534 21.354 28.341 30h-36.194c-66.841 0-84.053 51.815-97.881 92.641C28.343 482.498 51.006 512 81.188 512h349.629c30.284 0 52.813-29.608 43.066-58.345zM122.518 181h-16.516c-4.814 0-9.366.959-13.718 2.366C99.178 93.133 173.145 30 256.002 30c86.785 0 157.972 68.388 164.37 153.567-4.539-1.544-9.316-2.567-14.37-2.567h-16.516c-7.573-67.315-64.177-121-133.484-121s-125.911 53.685-133.484 121zm133.484 290.995L195.996 391h120.011l-60.005 80.995zm0-110.995c-57.891 0-105-47.109-105-105v-15h45c24.62 0 46.318-12.085 60-30.463 13.682 18.378 35.38 30.463 60 30.463h45v15c0 16.165-3.977 31.307-10.532 45h-64.468c-8.291 0-15 6.709-15 15s6.709 14.9 15 14.9h43.251C310.315 349.399 284.5 361 256.002 361z" fill="#46d41f" opacity="1" data-original="#000000"></path></g></svg>