<svg xmlns="http://www.w3.org/2000/svg" version="1.1" xmlns:xlink="http://www.w3.org/1999/xlink" width="512" height="512" x="0" y="0" viewBox="0 0 48 48" style="enable-background:new 0 0 512 512" xml:space="preserve" class=""><g><path d="M27.8 25.7h-8.2v13.6h-4l8.4 8.2 8.4-8.2h-4.6z" fill="#46d41f" opacity="1" data-original="#000000" class=""></path><path d="M36.8 7.9c-1.5 0-2.9.3-4.1.8C31.3 4 26.9.5 21.7.5c-6.2 0-11.3 4.9-11.5 11h-.9c-4.9 0-8.8 3.9-8.8 8.7s3.9 8.7 8.8 8.7h6.9v-6.6h15.1v6.6h5.5c5.9 0 10.7-4.7 10.7-10.5S42.7 7.9 36.8 7.9z" fill="#46d41f" opacity="1" data-original="#000000" class=""></path></g></svg>