<svg width="25" height="25" viewBox="0 0 25 25" fill="none" xmlns="http://www.w3.org/2000/svg">
<path fill-rule="evenodd" clip-rule="evenodd" d="M22.0043 4.90649C20.1332 3.0332 17.6448 2.0011 14.9938 2C9.53113 2 5.08533 6.44568 5.08313 11.9098C5.0824 13.6565 5.5387 15.3616 6.40601 16.8645L5 22L10.2538 20.6218C11.7014 21.4115 13.3312 21.8276 14.9897 21.8281H14.9939C20.4559 21.8281 24.9022 17.3821 24.9043 11.9177C24.9054 9.26953 23.8755 6.77966 22.0043 4.90649ZM14.9938 20.1544H14.9904C13.5123 20.1538 12.0627 19.7566 10.7979 19.0062L10.4972 18.8276L7.37952 19.6455L8.21167 16.6058L8.01575 16.2942C7.19116 14.9827 6.75574 13.4668 6.75647 11.9104C6.75818 7.36877 10.4535 3.67383 14.9971 3.67383C17.1973 3.67456 19.2655 4.53247 20.8207 6.08948C22.3759 7.64648 23.2318 9.71606 23.2311 11.9171C23.2291 16.4591 19.5341 20.1544 14.9938 20.1544ZM19.5121 13.9851C19.2645 13.8611 18.047 13.2622 17.8199 13.1794C17.5931 13.0968 17.4279 13.0557 17.2629 13.3035C17.0978 13.5513 16.6233 14.1091 16.4788 14.2743C16.3342 14.4396 16.1899 14.4603 15.9423 14.3363C15.6946 14.2124 14.8967 13.9508 13.9508 13.1072C13.2147 12.4506 12.7178 11.6396 12.5732 11.3918C12.429 11.1438 12.572 11.0227 12.6819 10.8865C12.95 10.5536 13.2184 10.2046 13.3009 10.0394C13.3835 9.87415 13.3422 9.72949 13.2802 9.60559C13.2184 9.48169 12.7231 8.26282 12.5168 7.76685C12.3157 7.28418 12.1117 7.34937 11.9596 7.3418C11.8153 7.33459 11.6501 7.33313 11.485 7.33313C11.3199 7.33313 11.0516 7.39502 10.8246 7.64307C10.5977 7.89099 9.95801 8.48999 9.95801 9.70886C9.95801 10.9277 10.8453 12.1052 10.9691 12.2705C11.0929 12.4358 12.7153 14.937 15.1993 16.0095C15.7902 16.2649 16.2513 16.4171 16.6111 16.5312C17.2043 16.7197 17.744 16.6931 18.1708 16.6294C18.6466 16.5582 19.6357 16.0303 19.8423 15.4519C20.0486 14.8734 20.0486 14.3777 19.9866 14.2743C19.9248 14.171 19.7596 14.1091 19.5121 13.9851Z" fill="white"/>
</svg>
